<?xml version="1.0" encoding="UTF-8"?><svg id="UI-elementer" xmlns="http://www.w3.org/2000/svg" width="59" height="97" viewBox="0 0 59 97"><defs><style>.cls-1,.cls-2,.cls-3,.cls-4,.cls-5{stroke-width:0px;}.cls-2{fill:rgba(252,227,0,.5);}.cls-3{fill:#f7f1eb;}.cls-4{fill:#ede9e6;}.cls-5{fill:#edd600;}</style></defs><rect class="cls-3" x="3.42" y="68.54" width="51" height="28"/><rect class="cls-1" x="26.42" y="47.54" width="5" height="24" rx="1.51" ry="1.51"/><path id="nissehueskygge2" class="cls-5" d="m17.81,48.26c.34.64.86,1.51,1.61,2.4,1.21,1.44,2.87,2.77,3.11,2.45.24-.31-1.06-1.87-2.75-5.22-1.73-3.44-2.6-6.24-2.78-6.85-.74-2.44-1.43-4.71-1.48-7.91-.02-1.43.17-2.92.54-5.83.75-5.81,1.46-8.47,1.19-8.55-.31-.09-1.81,3.15-2.64,6.96-1.08,5-.59,9.07-.29,11.38.15,1.14.63,4.43,2.1,8.15.5,1.26.99,2.27,1.38,3.02Z"/><path class="cls-2" d="m24.89,2.08C26.95-.02,30.3-.08,32.46,1.92c5.69,5.29,15.67,15.9,15.93,25.47.39,14.41-1.82,30.79-19.8,30.79S9.56,41.16,10.1,26.96c.34-9,9.49-19.52,14.79-24.88Z"/><path class="cls-4" d="m16.42,73.19c-2.42.25-4.4,2.75-4,6.26.23,1.44.27,3.68-1,6.26-1.05,2.12-4.23,6.99-7,6.83-4.07-.25-5-11.25-3.86-18.83,1.16-7.7,4.09-9.71,6.66-10.57,1.72-.58,4.92-.98,11.27-.86,8.08.15,14.55.09,18.96,0,6.17-.12,8.6-.3,11.78.57,6.67,1.82,8.58,5.99,8.71,6.28.24.56,2.27,4.35-.51,5.43-1.38.53-3.58.25-5.01-.23-4.19-1.41-3.53-5.04-5-5.12-2.45-.13-4.33,10-9,10.24-1.89.1-3.72-1.45-5-2.84-.08.56-1.21,7.71-5,7.96-2.08.14-4.9-1.82-5.83-3.72-1.07-2.21.95-3.26-.51-5.14-1.08-1.39-3.65-2.72-5.66-2.52Z"/></svg>