<?xml version="1.0" encoding="UTF-8"?><svg id="UI-elementer" xmlns="http://www.w3.org/2000/svg" width="59" height="268" viewBox="0 0 59 268"><defs><style>.cls-1,.cls-2{stroke-width:0px;}.cls-2{fill:#f7f1eb;}</style></defs><rect class="cls-2" x="4" width="51" height="268" rx="7.8" ry="7.8"/><path class="cls-1" d="m31.1,13.14c0,.15-.04.28-.13.4s-.21.17-.34.17c-.1,0-.33-.13-.7-.38-.37-.25-.56-.42-.57-.52,0-.04,0-.1.03-.17.02-.07.03-.12.03-.16v-3.78c0-.14-.13-.24-.41-.3-.3-.07-.47-.17-.51-.3-.02-.07-.04-.13-.04-.19,0-.13.07-.29.2-.47.18-.25.29-.41.32-.48.07-.23.14-.47.22-.7.1-.26.28-.4.53-.4s.52.08.77.23c.29.17.43.37.43.59v5.97c0,.06.03.14.09.23s.09.17.09.24Z"/><path class="cls-1" d="m32.45,23.25c.02.17-.09.3-.33.37-.08-.01-.19,0-.34,0-.11,0-.45.09-1.02.26-.64.18-1.12.35-1.43.5-.08.04-.16.1-.23.17-.07.07-.11.1-.13.1-.09.01-.35-.14-.78-.47-.12-.07-.24-.15-.36-.23-.12-.08-.18-.18-.19-.3,0-.04.26-.43.78-1.18.64-.91,1.14-1.67,1.49-2.29.54-.97.84-1.73.88-2.29-.47.19-.94.62-1.4,1.3-.04.03-.06.09-.07.17,0,.08-.03.14-.05.17-.06.08-.15.12-.26.12-.2,0-.44-.1-.72-.29-.12-.07-.24-.13-.36-.2-.14-.08-.22-.15-.22-.21-.01-.14.14-.4.45-.8.34-.42.71-.78,1.12-1.07.49-.36.92-.54,1.3-.54.14,0,.28.05.41.14.13.09.25.19.37.28.49.34.79.65.93.95.02.06.04.14.04.23,0,.42-.22,1.1-.67,2.05-.42.89-.87,1.67-1.35,2.33.19-.06.44-.15.77-.27.04-.02.1-.06.19-.13.06-.04.12-.06.17-.05.14.02.35.19.61.51.26.32.4.54.41.65Z"/><path class="cls-1" d="m32.07,29.38c-.04.42-.32.92-.82,1.51.61.51.91,1.09.91,1.75s-.3,1.32-.89,1.93c-.54.55-1.05.84-1.52.87-.19.01-.59-.22-1.18-.7-.58-.47-.87-.76-.87-.88,0-.14.06-.26.2-.38s.27-.17.4-.16c.08,0,.22.12.41.33s.36.34.51.37c.25.05.58-.2,1-.75.4-.52.6-.91.6-1.16,0-.11-.07-.16-.21-.16-.1,0-.21.05-.34.14-.1.07-.19.13-.28.2-.09.07-.18.1-.27.09-.1-.01-.27-.11-.49-.29-.23-.18-.41-.37-.55-.56-.03-.04-.04-.09-.04-.14,0-.17.08-.29.24-.36.23-.1.5-.32.83-.65.47-.49.76-1,.87-1.55-.24.05-.51.28-.8.67-.29.39-.48.6-.55.63-.11.04-.33-.03-.65-.22-.32-.19-.53-.35-.62-.49-.02-.02-.03-.05-.03-.09,0-.1.08-.23.24-.41.5-.56.84-.91,1.03-1.07.39-.33.76-.49,1.12-.47.4.02.8.27,1.22.73s.6.88.56,1.27Z"/><path class="cls-1" d="m33.13,43.07c0,.13-.13.25-.39.34-.26.04-.55.09-.87.15v2.11s0,.06.02.11c.01.05.01.09,0,.13-.01.13-.07.24-.18.33s-.21.13-.3.12c-.37-.05-.77-.33-1.22-.86-.05-.06-.07-.17-.05-.31,0-.03.02-.07.06-.11.04-.04.06-.08.06-.12v-1.18c-.5.16-.87.28-1.12.35-.45.13-.76.2-.93.21-.14.01-.37-.09-.67-.31-.27-.19-.45-.34-.52-.46-.03-.04-.04-.09-.04-.13,0-.07.07-.2.2-.39.07-.06.16-.16.28-.31.01-.01.48-.75,1.39-2.21.9-1.43,1.38-2.17,1.45-2.21.2-.12.34-.18.44-.17.14,0,.38.13.74.38s.54.43.57.55c.02.07-.04.2-.18.39v2.45c.2-.04.31-.05.32-.05.07,0,.13.02.19.06.11.1.26.29.46.6.2.3.3.48.3.54Zm-2.84-.75v-1.24l-.96,1.57.96-.32Z"/><path class="cls-1" d="m32.4,50.13c.01.07-.02.15-.11.24s-.17.15-.27.17c-.07.01-.18,0-.32-.06-.17-.06-.3-.1-.39-.11-.22-.02-.48,0-.8.1-.4.11-.74.28-1.04.52v.98c.25-.11.49-.17.73-.17.34,0,.76.19,1.26.58s.75.73.75,1.03c0,.93-.24,1.79-.71,2.58s-.99,1.18-1.57,1.18c-.29,0-.75-.22-1.37-.65-.62-.43-.94-.77-.96-1.03-.01-.13.02-.25.11-.37.08-.12.19-.18.3-.18.19-.01.45.13.78.43.36.34.55.52.58.52.31-.17.63-.56.95-1.15.31-.57.47-1.02.47-1.34,0-.2-.1-.3-.29-.3-.18,0-.43.13-.74.39-.31.26-.48.39-.49.39-.12,0-.35-.07-.68-.22s-.56-.31-.68-.45c-.04-.05-.06-.11-.06-.18,0-.03,0-.09.02-.17.02-.08.02-.15.02-.19v-2.71c0-.09.05-.18.17-.27.11-.09.23-.15.37-.17.04,0,.08,0,.14.02.06.02.1.03.13.03s.06,0,.1-.03c.44-.2.94-.35,1.5-.47.41-.08.69-.12.84-.12.07-.01.13-.02.19-.04.07,0,.13,0,.18.04.16.12.34.3.53.55.21.26.33.47.36.61Z"/><path class="cls-1" d="m31.71,62.46c-.62-.13-1.05-.32-1.27-.58,0-.57-.13-.87-.38-.89-.26-.02-.47.24-.61.79-.1.34-.16.74-.18,1.2.13-.1.26-.2.4-.31.16-.12.31-.19.46-.2.2-.02.39.01.59.09.18.1.36.19.54.28.16.08.32.16.48.23.16.1.28.21.36.34.15.25.22.57.22.98,0,.76-.21,1.49-.62,2.2-.44.76-.95,1.13-1.52,1.13-.36,0-.76-.15-1.21-.44-.45-.29-.74-.61-.86-.94-.27-.72-.41-1.61-.41-2.66,0-.89.1-1.68.32-2.35.23-.76.55-1.24.98-1.46.1-.05.21-.07.34-.07.26,0,.63.12,1.12.35.52.25.89.46,1.1.61.34.26.53.54.55.84.05.14.07.27.07.39,0,.12-.05.24-.14.35-.1.11-.2.15-.32.13Zm-1,1.2c-.9.44-1.35,1.1-1.35,1.99,0,.26.05.53.14.81.44-.09.79-.46,1.05-1.12.14-.35.21-.71.21-1.09,0-.19-.02-.39-.05-.58Z"/><path class="cls-1" d="m32.43,71.73c-.01.07-.06.13-.13.2-.11.09-.18.16-.23.22-.05.13-.32,1.09-.81,2.89-.49,1.78-.75,2.71-.77,2.8,0,.11-.03.28-.06.52-.04.16-.13.27-.3.34-.02,0-.04,0-.08,0-.15,0-.37-.05-.65-.14-.3-.11-.52-.23-.66-.36-.07-.05-.1-.15-.1-.28,0-.05.03-.11.08-.18.05-.07.08-.12.09-.16.22-.86.43-1.63.61-2.3.44-1.64.75-2.7.93-3.2l-1.33.35c-.17.12-.28.17-.33.16-.13-.02-.35-.13-.67-.33-.32-.19-.51-.35-.58-.46-.03-.05-.05-.11-.05-.17,0-.22.1-.38.32-.47.08-.04.19-.06.32-.07.2-.02.32-.03.36-.04l2.56-.46s.12-.04.22-.1c.08-.04.15-.06.22-.04.12.02.33.22.62.58s.43.6.41.7Z"/><path class="cls-1" d="m32.79,86.49c0,.63-.43,1.28-1.29,1.96s-1.68,1.02-2.47,1.02c-.29,0-.67-.19-1.12-.58-.49-.42-.73-.81-.73-1.18,0-.85.41-1.58,1.24-2.2-.68-.22-1.03-.6-1.03-1.13s.35-1.15,1.05-1.91c.73-.78,1.36-1.17,1.92-1.17.4,0,.71.09.93.27.18.22.36.44.54.66.39.46.59.86.59,1.22,0,.11-.02.23-.05.33-.13.4-.4.74-.81,1.03.83.55,1.24,1.1,1.24,1.67Zm-1.51-.49c-.61,0-1.13.15-1.55.45-.52.37-.85.89-.97,1.57.05,0,.11,0,.16,0,.49,0,1.01-.25,1.57-.76.53-.49.79-.91.79-1.26Zm-.38-3.19c-.47.12-.89.34-1.24.65-.35.31-.6.69-.76,1.13.55.02,1.03-.18,1.44-.59.37-.38.56-.77.56-1.19Z"/><path class="cls-1" d="m31.84,93.61c.27.72.4,1.61.4,2.66,0,.89-.11,1.68-.31,2.35-.23.75-.55,1.23-.98,1.45-.1.05-.21.07-.34.07-.26,0-.63-.12-1.12-.35-.52-.25-.89-.45-1.1-.6-.34-.26-.52-.54-.55-.84-.05-.14-.07-.27-.07-.39,0-.12.05-.24.14-.35.1-.11.2-.15.31-.13.62.13,1.05.32,1.27.58,0,.57.13.87.38.89.25.02.46-.28.62-.9.11-.43.19-.89.22-1.4-.34.52-.64.79-.9.82-.2.02-.39-.02-.58-.1-.19-.09-.36-.17-.54-.26-.17-.08-.33-.17-.49-.26s-.28-.2-.36-.33c-.15-.25-.23-.57-.23-.98,0-.76.21-1.49.62-2.2.44-.76.95-1.14,1.52-1.14.36,0,.77.15,1.21.45.45.3.74.61.87.95Zm-1.41-.12c-.44.09-.79.46-1.05,1.12-.14.35-.21.71-.21,1.09,0,.19.02.39.05.58.9-.44,1.35-1.1,1.35-1.99,0-.26-.05-.53-.14-.81Z"/><path class="cls-1" d="m28.17,110.34c0,.15-.05.28-.14.4s-.2.17-.34.17c-.1,0-.33-.13-.7-.38-.37-.25-.56-.42-.57-.52,0-.04,0-.1.03-.17.02-.07.03-.12.03-.16v-3.78c0-.14-.13-.24-.4-.3-.3-.07-.47-.17-.51-.3-.02-.07-.04-.13-.04-.19,0-.13.07-.29.2-.47.18-.25.29-.41.32-.48.07-.23.14-.47.22-.7.1-.26.28-.4.53-.4s.52.08.78.23c.29.17.43.37.43.59v5.97c0,.06.03.14.08.23.06.09.09.17.09.24Z"/><path class="cls-1" d="m34.28,103.49c.29.07.53.38.7.94.16.52.23,1.17.23,1.94,0,.9-.12,1.79-.37,2.66-.35,1.25-.87,1.88-1.55,1.88-.11,0-.24-.03-.4-.08-.25-.1-.39-.15-.41-.15-.16-.07-.43-.17-.8-.3-.3-.1-.55-.53-.74-1.28-.18-.7-.27-1.5-.27-2.4s.09-1.66.28-2.29c.21-.71.5-1.13.89-1.27.02,0,.05,0,.07,0,.04,0,.09.02.15.05.06.04.1.05.13.04.17-.06.35-.09.54-.09.21,0,.47.04.77.13.45.13.7.2.76.22Zm-1.13.58c-.29,0-.51.32-.67.97-.13.53-.19,1.14-.19,1.83,0,.55.06,1.15.19,1.78.13.64.25.95.37.95.23,0,.43-.37.58-1.1.13-.65.19-1.4.19-2.25,0-.62-.04-1.13-.11-1.53-.08-.44-.2-.66-.35-.66Z"/><path class="cls-1" d="m28.17,121.14c0,.15-.05.28-.14.4s-.2.17-.34.17c-.1,0-.33-.13-.7-.38-.37-.25-.56-.42-.57-.52,0-.04,0-.1.03-.17.02-.07.03-.12.03-.16v-3.78c0-.14-.13-.24-.4-.3-.3-.07-.47-.17-.51-.3-.02-.07-.04-.13-.04-.19,0-.13.07-.29.2-.47.18-.25.29-.41.32-.48.07-.23.14-.47.22-.7.1-.26.28-.4.53-.4s.52.08.78.23c.29.17.43.37.43.59v5.97c0,.06.03.14.08.23.06.09.09.17.09.24Z"/><path class="cls-1" d="m34.03,121.14c0,.15-.05.28-.14.4s-.2.17-.34.17c-.1,0-.33-.13-.7-.38s-.56-.42-.57-.52c0-.04,0-.1.03-.17.02-.07.03-.12.03-.16v-3.78c0-.14-.13-.24-.4-.3-.3-.07-.47-.17-.51-.3-.02-.07-.04-.13-.04-.19,0-.13.07-.29.2-.47.18-.25.29-.41.32-.48.07-.23.14-.47.22-.7.1-.26.28-.4.53-.4s.52.08.77.23c.29.17.43.37.43.59v5.97c0,.06.03.14.09.23s.09.17.09.24Z"/><path class="cls-1" d="m28.17,131.94c0,.15-.05.28-.14.4s-.2.17-.34.17c-.1,0-.33-.13-.7-.38-.37-.25-.56-.42-.57-.52,0-.04,0-.1.03-.17.02-.07.03-.12.03-.16v-3.78c0-.14-.13-.24-.4-.3-.3-.07-.47-.17-.51-.3-.02-.07-.04-.13-.04-.19,0-.13.07-.29.2-.47.18-.25.29-.41.32-.48.07-.23.14-.47.22-.7.1-.26.28-.4.53-.4s.52.08.78.23c.29.17.43.37.43.59v5.97c0,.06.03.14.08.23.06.09.09.17.09.24Z"/><path class="cls-1" d="m35.38,131.25c.02.17-.09.3-.33.37-.08-.01-.19,0-.34,0-.11,0-.45.09-1.02.26-.64.18-1.12.35-1.43.5-.08.04-.16.1-.23.17-.07.07-.11.1-.13.1-.09.01-.35-.14-.78-.47-.12-.07-.24-.15-.36-.23-.12-.08-.18-.18-.19-.3,0-.04.26-.43.78-1.18.64-.91,1.14-1.67,1.49-2.29.55-.97.84-1.73.88-2.29-.47.19-.94.62-1.4,1.3-.04.03-.06.09-.07.17s-.03.14-.05.17c-.06.08-.15.12-.26.12-.2,0-.44-.1-.72-.29-.12-.07-.24-.13-.36-.2-.14-.08-.22-.15-.22-.21-.01-.14.14-.4.45-.8.34-.42.71-.78,1.12-1.07.49-.36.92-.54,1.3-.54.14,0,.28.05.41.14.13.09.25.19.37.28.49.34.79.65.93.95.02.06.04.14.04.23,0,.42-.22,1.1-.67,2.05-.42.89-.87,1.67-1.35,2.33.19-.06.44-.15.77-.27.04-.02.1-.06.19-.13.06-.04.12-.06.17-.05.14.02.35.19.61.51.26.32.4.54.41.65Z"/><path class="cls-1" d="m28.17,142.74c0,.15-.05.28-.14.4s-.2.17-.34.17c-.1,0-.33-.13-.7-.38-.37-.25-.56-.42-.57-.52,0-.04,0-.1.03-.17.02-.07.03-.12.03-.16v-3.78c0-.14-.13-.24-.4-.3-.3-.07-.47-.17-.51-.3-.02-.07-.04-.13-.04-.19,0-.13.07-.29.2-.47.18-.25.29-.41.32-.48.07-.23.14-.47.22-.7.1-.26.28-.4.53-.4s.52.08.78.23c.29.17.43.37.43.59v5.97c0,.06.03.14.08.23.06.09.09.17.09.24Z"/><path class="cls-1" d="m35,137.38c-.04.42-.31.92-.82,1.51.61.51.91,1.09.91,1.75s-.3,1.32-.89,1.93c-.54.55-1.05.84-1.52.87-.19.01-.58-.22-1.18-.7-.58-.47-.87-.76-.87-.88,0-.14.06-.26.2-.38.14-.11.27-.17.4-.16.08,0,.22.12.4.33.19.22.36.34.51.37.25.05.58-.2,1-.75.4-.52.6-.91.6-1.16,0-.11-.07-.16-.21-.16-.1,0-.21.05-.34.14-.1.07-.19.13-.28.2-.09.07-.18.1-.27.09-.1-.01-.27-.11-.49-.29-.22-.18-.41-.37-.55-.56-.03-.04-.04-.09-.04-.14,0-.17.08-.29.24-.36.23-.1.5-.32.83-.65.47-.49.76-1,.87-1.55-.24.05-.51.28-.8.67-.29.39-.48.6-.55.63-.11.04-.33-.03-.65-.22-.32-.19-.53-.35-.63-.49-.02-.02-.03-.05-.03-.09,0-.1.08-.23.24-.41.5-.56.84-.91,1.03-1.07.39-.33.76-.49,1.12-.47.4.02.8.27,1.22.73.42.46.61.88.56,1.27Z"/><path class="cls-1" d="m28.17,153.54c0,.15-.05.28-.14.4s-.2.17-.34.17c-.1,0-.33-.13-.7-.38-.37-.25-.56-.42-.57-.52,0-.04,0-.1.03-.17.02-.07.03-.12.03-.16v-3.78c0-.14-.13-.24-.4-.3-.3-.07-.47-.17-.51-.3-.02-.07-.04-.13-.04-.19,0-.13.07-.29.2-.47.18-.25.29-.41.32-.48.07-.23.14-.47.22-.7.1-.26.28-.4.53-.4s.52.08.78.23c.29.17.43.37.43.59v5.97c0,.06.03.14.08.23.06.09.09.17.09.24Z"/><path class="cls-1" d="m36.06,151.07c0,.13-.13.25-.39.34-.26.04-.55.09-.87.15v2.11s0,.06.02.11.02.09,0,.13c-.01.13-.07.24-.18.33-.11.09-.21.13-.3.12-.37-.05-.77-.33-1.22-.86-.05-.06-.07-.17-.05-.31,0-.03.02-.07.06-.11s.06-.08.06-.12v-1.18c-.5.16-.87.28-1.12.35-.45.13-.76.2-.93.21-.14.01-.37-.09-.67-.31-.27-.19-.44-.34-.52-.46-.03-.04-.04-.09-.04-.13,0-.07.07-.2.2-.39.07-.06.16-.16.28-.31.01-.01.48-.75,1.4-2.21.9-1.43,1.38-2.17,1.45-2.21.2-.12.34-.18.44-.17.14,0,.38.13.74.38.35.25.54.43.57.55.02.07-.04.2-.18.39v2.45c.21-.04.31-.05.32-.05.07,0,.13.02.19.06.11.1.26.29.46.6.2.3.3.48.3.54Zm-2.84-.75v-1.24l-.96,1.57.96-.32Z"/><path class="cls-1" d="m28.17,164.34c0,.15-.05.28-.14.4s-.2.17-.34.17c-.1,0-.33-.13-.7-.38-.37-.25-.56-.42-.57-.52,0-.04,0-.1.03-.17.02-.07.03-.12.03-.16v-3.78c0-.14-.13-.24-.4-.3-.3-.07-.47-.17-.51-.3-.02-.07-.04-.13-.04-.19,0-.13.07-.29.2-.47.18-.25.29-.41.32-.48.07-.23.14-.47.22-.7.1-.26.28-.4.53-.4s.52.08.78.23c.29.17.43.37.43.59v5.97c0,.06.03.14.08.23.06.09.09.17.09.24Z"/><path class="cls-1" d="m35.32,158.13c.01.07-.02.15-.11.24s-.17.15-.27.17c-.07.01-.18,0-.32-.06-.17-.06-.3-.1-.39-.11-.22-.02-.48,0-.8.1-.4.11-.74.28-1.04.52v.98c.25-.11.5-.17.73-.17.34,0,.76.19,1.26.58s.75.73.75,1.03c0,.93-.24,1.79-.71,2.58-.47.79-1,1.18-1.57,1.18-.29,0-.75-.22-1.37-.65-.62-.43-.94-.77-.96-1.03-.01-.13.02-.25.11-.37.08-.12.19-.18.31-.18.19-.01.44.13.77.43.36.34.55.52.58.52.31-.17.63-.56.96-1.15.31-.57.47-1.02.47-1.34,0-.2-.1-.3-.29-.3-.18,0-.43.13-.74.39s-.48.39-.5.39c-.12,0-.34-.07-.67-.22s-.56-.31-.68-.45c-.04-.05-.06-.11-.06-.18,0-.03,0-.09.02-.17s.02-.15.02-.19v-2.71c0-.09.06-.18.17-.27.11-.09.23-.15.36-.17.04,0,.08,0,.14.02.06.02.11.03.13.03.03,0,.06,0,.1-.03.44-.2.94-.35,1.5-.47.41-.08.69-.12.84-.12.07-.01.13-.02.19-.04.07,0,.12,0,.18.04.16.12.34.3.53.55.21.26.33.47.36.61Z"/><path class="cls-1" d="m28.17,175.14c0,.15-.05.28-.14.4s-.2.17-.34.17c-.1,0-.33-.13-.7-.38-.37-.25-.56-.42-.57-.52,0-.04,0-.1.03-.17.02-.07.03-.12.03-.16v-3.78c0-.14-.13-.24-.4-.3-.3-.07-.47-.17-.51-.3-.02-.07-.04-.13-.04-.19,0-.13.07-.29.2-.47.18-.25.29-.41.32-.48.07-.23.14-.47.22-.7.1-.26.28-.4.53-.4s.52.08.78.23c.29.17.43.37.43.59v5.97c0,.06.03.14.08.23.06.09.09.17.09.24Z"/><path class="cls-1" d="m34.64,170.46c-.62-.13-1.05-.32-1.27-.58,0-.57-.12-.87-.38-.89-.26-.02-.47.24-.61.79-.1.34-.16.74-.18,1.2.13-.1.26-.2.4-.31.16-.12.31-.19.46-.2.2-.02.39.01.58.09.18.1.36.19.54.28.16.08.32.16.48.23.16.1.28.21.36.34.15.25.23.57.23.98,0,.76-.21,1.49-.62,2.2-.44.76-.95,1.13-1.52,1.13-.36,0-.77-.15-1.21-.44-.45-.29-.74-.61-.86-.94-.27-.72-.41-1.61-.41-2.66,0-.89.11-1.68.32-2.35.23-.76.55-1.24.98-1.46.1-.05.21-.07.34-.07.26,0,.63.12,1.12.35.52.25.89.46,1.1.61.34.26.53.54.55.84.05.14.07.27.07.39,0,.12-.05.24-.14.35s-.2.15-.31.13Zm-1,1.2c-.9.44-1.35,1.1-1.35,1.99,0,.26.05.53.14.81.44-.09.79-.46,1.05-1.12.14-.35.21-.71.21-1.09,0-.19-.02-.39-.05-.58Z"/><path class="cls-1" d="m28.17,185.94c0,.15-.05.28-.14.4s-.2.17-.34.17c-.1,0-.33-.13-.7-.38-.37-.25-.56-.42-.57-.52,0-.04,0-.1.03-.17.02-.07.03-.12.03-.16v-3.78c0-.14-.13-.24-.4-.3-.3-.07-.47-.17-.51-.3-.02-.07-.04-.13-.04-.19,0-.13.07-.29.2-.47.18-.25.29-.41.32-.48.07-.23.14-.47.22-.7.1-.26.28-.4.53-.4s.52.08.78.23c.29.17.43.37.43.59v5.97c0,.06.03.14.08.23.06.09.09.17.09.24Z"/><path class="cls-1" d="m35.36,179.73c-.01.07-.06.13-.13.2-.11.09-.18.16-.23.22-.05.13-.32,1.09-.81,2.89-.49,1.78-.75,2.71-.76,2.8,0,.11-.03.28-.06.52-.04.16-.14.27-.3.34-.02,0-.04,0-.08,0-.15,0-.37-.05-.65-.14-.3-.11-.52-.23-.66-.36-.07-.05-.1-.15-.1-.28,0-.05.03-.11.08-.18.05-.07.08-.12.09-.16.22-.86.43-1.63.61-2.3.44-1.64.75-2.7.93-3.2l-1.33.35c-.17.12-.28.17-.33.16-.12-.02-.35-.13-.67-.33-.32-.19-.51-.35-.58-.46-.03-.05-.05-.11-.05-.17,0-.22.11-.38.32-.47.08-.04.19-.06.32-.07.2-.02.32-.03.36-.04l2.56-.46s.11-.04.22-.1c.08-.04.15-.06.21-.04.12.02.33.22.62.58s.43.6.41.7Z"/><path class="cls-1" d="m28.17,196.74c0,.15-.05.28-.14.4s-.2.17-.34.17c-.1,0-.33-.13-.7-.38-.37-.25-.56-.42-.57-.52,0-.04,0-.1.03-.17.02-.07.03-.12.03-.16v-3.78c0-.14-.13-.24-.4-.3-.3-.07-.47-.17-.51-.3-.02-.07-.04-.13-.04-.19,0-.13.07-.29.2-.47.18-.25.29-.41.32-.48.07-.23.14-.47.22-.7.1-.26.28-.4.53-.4s.52.08.78.23c.29.17.43.37.43.59v5.97c0,.06.03.14.08.23.06.09.09.17.09.24Z"/><path class="cls-1" d="m35.72,194.49c0,.63-.43,1.28-1.29,1.96-.86.68-1.69,1.02-2.47,1.02-.29,0-.67-.19-1.12-.58-.49-.42-.73-.81-.73-1.18,0-.85.41-1.58,1.24-2.2-.68-.22-1.03-.6-1.03-1.13s.35-1.15,1.05-1.91c.73-.78,1.37-1.17,1.92-1.17.4,0,.71.09.93.27.18.22.36.44.54.66.39.46.58.86.58,1.22,0,.11-.02.23-.05.33-.13.4-.4.74-.81,1.03.83.55,1.24,1.1,1.24,1.67Zm-1.51-.49c-.61,0-1.13.15-1.55.45-.52.37-.85.89-.97,1.57.05,0,.11,0,.16,0,.49,0,1.01-.25,1.57-.76.53-.49.79-.91.79-1.26Zm-.38-3.19c-.47.12-.89.34-1.24.65-.35.31-.61.69-.76,1.13.55.02,1.03-.18,1.44-.59.37-.38.56-.77.56-1.19Z"/><path class="cls-1" d="m28.17,207.54c0,.15-.05.28-.14.4s-.2.17-.34.17c-.1,0-.33-.13-.7-.38-.37-.25-.56-.42-.57-.52,0-.04,0-.1.03-.17.02-.07.03-.12.03-.16v-3.78c0-.14-.13-.24-.4-.3-.3-.07-.47-.17-.51-.3-.02-.07-.04-.13-.04-.19,0-.13.07-.29.2-.47.18-.25.29-.41.32-.48.07-.23.14-.47.22-.7.1-.26.28-.4.53-.4s.52.08.78.23c.29.17.43.37.43.59v5.97c0,.06.03.14.08.23.06.09.09.17.09.24Z"/><path class="cls-1" d="m34.76,201.61c.27.72.41,1.61.41,2.66,0,.89-.11,1.68-.32,2.35-.23.75-.55,1.23-.98,1.45-.1.05-.21.07-.34.07-.26,0-.63-.12-1.12-.35-.52-.25-.89-.45-1.1-.6-.34-.26-.53-.54-.55-.84-.05-.14-.07-.27-.07-.39,0-.12.05-.24.14-.35.1-.11.2-.15.31-.13.62.13,1.05.32,1.27.58,0,.57.12.87.38.89.25.02.46-.28.62-.9.11-.43.19-.89.22-1.4-.34.52-.64.79-.9.82-.2.02-.39-.02-.58-.1s-.36-.17-.54-.26-.33-.17-.49-.26-.28-.2-.36-.33c-.15-.25-.23-.57-.23-.98,0-.76.21-1.49.62-2.2.44-.76.95-1.14,1.52-1.14.36,0,.77.15,1.21.45.45.3.74.61.86.95Zm-1.41-.12c-.44.09-.79.46-1.05,1.12-.14.35-.21.71-.21,1.09,0,.19.02.39.05.58.9-.44,1.35-1.1,1.35-1.99,0-.26-.05-.53-.14-.81Z"/><path class="cls-1" d="m29.52,217.65c.02.17-.09.3-.33.37-.08-.01-.19,0-.34,0-.11,0-.45.09-1.02.26-.64.18-1.12.35-1.43.5-.08.04-.16.1-.23.17-.07.07-.11.1-.13.1-.09.01-.35-.14-.78-.47-.12-.07-.24-.15-.36-.23-.12-.08-.18-.18-.19-.3,0-.04.26-.43.78-1.18.64-.91,1.14-1.67,1.49-2.29.55-.97.84-1.73.88-2.29-.47.19-.94.62-1.4,1.3-.04.03-.06.09-.07.17,0,.08-.03.14-.05.17-.06.08-.15.12-.26.12-.2,0-.44-.1-.72-.29-.12-.07-.24-.13-.36-.2-.14-.08-.22-.15-.22-.21-.01-.14.14-.4.45-.8.34-.42.71-.78,1.12-1.07.49-.36.92-.54,1.3-.54.14,0,.28.05.41.14.13.09.25.19.37.28.49.34.79.65.93.95.02.06.04.14.04.23,0,.42-.22,1.1-.67,2.05-.42.89-.87,1.67-1.35,2.33.19-.06.44-.15.77-.27.04-.02.1-.06.19-.13.06-.04.12-.06.17-.05.14.02.35.19.61.51.26.32.4.54.41.65Z"/><path class="cls-1" d="m34.28,211.49c.29.07.53.38.7.94.16.52.23,1.17.23,1.94,0,.9-.12,1.79-.37,2.66-.35,1.25-.87,1.88-1.55,1.88-.11,0-.24-.03-.4-.08-.25-.1-.39-.15-.41-.15-.16-.07-.43-.17-.8-.3-.3-.1-.55-.53-.74-1.28-.18-.7-.27-1.5-.27-2.4s.09-1.66.28-2.29c.21-.71.5-1.13.89-1.27.02,0,.05,0,.07,0,.04,0,.09.02.15.05.06.04.1.05.13.04.17-.06.35-.09.54-.09.21,0,.47.04.77.13.45.13.7.2.76.22Zm-1.13.58c-.29,0-.51.32-.67.97-.13.53-.19,1.14-.19,1.83,0,.55.06,1.15.19,1.78.13.64.25.95.37.95.23,0,.43-.37.58-1.1.13-.65.19-1.4.19-2.25,0-.62-.04-1.13-.11-1.53-.08-.44-.2-.66-.35-.66Z"/><path class="cls-1" d="m29.52,228.45c.02.17-.09.3-.33.37-.08-.01-.19,0-.34,0-.11,0-.45.09-1.02.26-.64.18-1.12.35-1.43.5-.08.04-.16.1-.23.17-.07.07-.11.1-.13.1-.09.01-.35-.14-.78-.47-.12-.07-.24-.15-.36-.23-.12-.08-.18-.18-.19-.3,0-.04.26-.43.78-1.18.64-.91,1.14-1.67,1.49-2.29.55-.97.84-1.73.88-2.29-.47.19-.94.62-1.4,1.3-.04.03-.06.09-.07.17,0,.08-.03.14-.05.17-.06.08-.15.12-.26.12-.2,0-.44-.1-.72-.29-.12-.07-.24-.13-.36-.2-.14-.08-.22-.15-.22-.21-.01-.14.14-.4.45-.8.34-.42.71-.78,1.12-1.07.49-.36.92-.54,1.3-.54.14,0,.28.05.41.14.13.09.25.19.37.28.49.34.79.65.93.95.02.06.04.14.04.23,0,.42-.22,1.1-.67,2.05-.42.89-.87,1.67-1.35,2.33.19-.06.44-.15.77-.27.04-.02.1-.06.19-.13.06-.04.12-.06.17-.05.14.02.35.19.61.51.26.32.4.54.41.65Z"/><path class="cls-1" d="m34.03,229.14c0,.15-.05.28-.14.4s-.2.17-.34.17c-.1,0-.33-.13-.7-.38s-.56-.42-.57-.52c0-.04,0-.1.03-.17.02-.07.03-.12.03-.16v-3.78c0-.14-.13-.24-.4-.3-.3-.07-.47-.17-.51-.3-.02-.07-.04-.13-.04-.19,0-.13.07-.29.2-.47.18-.25.29-.41.32-.48.07-.23.14-.47.22-.7.1-.26.28-.4.53-.4s.52.08.77.23c.29.17.43.37.43.59v5.97c0,.06.03.14.09.23s.09.17.09.24Z"/><path class="cls-1" d="m29.52,239.25c.02.17-.09.3-.33.37-.08-.01-.19,0-.34,0-.11,0-.45.09-1.02.26-.64.18-1.12.35-1.43.5-.08.04-.16.1-.23.17-.07.07-.11.1-.13.1-.09.01-.35-.14-.78-.47-.12-.07-.24-.15-.36-.23-.12-.08-.18-.18-.19-.3,0-.04.26-.43.78-1.18.64-.91,1.14-1.67,1.49-2.29.55-.97.84-1.73.88-2.29-.47.19-.94.62-1.4,1.3-.04.03-.06.09-.07.17,0,.08-.03.14-.05.17-.06.08-.15.12-.26.12-.2,0-.44-.1-.72-.29-.12-.07-.24-.13-.36-.2-.14-.08-.22-.15-.22-.21-.01-.14.14-.4.45-.8.34-.42.71-.78,1.12-1.07.49-.36.92-.54,1.3-.54.14,0,.28.05.41.14.13.09.25.19.37.28.49.34.79.65.93.95.02.06.04.14.04.23,0,.42-.22,1.1-.67,2.05-.42.89-.87,1.67-1.35,2.33.19-.06.44-.15.77-.27.04-.02.1-.06.19-.13.06-.04.12-.06.17-.05.14.02.35.19.61.51.26.32.4.54.41.65Z"/><path class="cls-1" d="m35.38,239.25c.02.17-.09.3-.33.37-.08-.01-.19,0-.34,0-.11,0-.45.09-1.02.26-.64.18-1.12.35-1.43.5-.08.04-.16.1-.23.17-.07.07-.11.1-.13.1-.09.01-.35-.14-.78-.47-.12-.07-.24-.15-.36-.23-.12-.08-.18-.18-.19-.3,0-.04.26-.43.78-1.18.64-.91,1.14-1.67,1.49-2.29.55-.97.84-1.73.88-2.29-.47.19-.94.62-1.4,1.3-.04.03-.06.09-.07.17s-.03.14-.05.17c-.06.08-.15.12-.26.12-.2,0-.44-.1-.72-.29-.12-.07-.24-.13-.36-.2-.14-.08-.22-.15-.22-.21-.01-.14.14-.4.45-.8.34-.42.71-.78,1.12-1.07.49-.36.92-.54,1.3-.54.14,0,.28.05.41.14.13.09.25.19.37.28.49.34.79.65.93.95.02.06.04.14.04.23,0,.42-.22,1.1-.67,2.05-.42.89-.87,1.67-1.35,2.33.19-.06.44-.15.77-.27.04-.02.1-.06.19-.13.06-.04.12-.06.17-.05.14.02.35.19.61.51.26.32.4.54.41.65Z"/><path class="cls-1" d="m29.52,250.05c.02.17-.09.3-.33.37-.08-.01-.19,0-.34,0-.11,0-.45.09-1.02.26-.64.18-1.12.35-1.43.5-.08.04-.16.1-.23.17-.07.07-.11.1-.13.1-.09.01-.35-.14-.78-.47-.12-.07-.24-.15-.36-.23-.12-.08-.18-.18-.19-.3,0-.04.26-.43.78-1.18.64-.91,1.14-1.67,1.49-2.29.55-.97.84-1.73.88-2.29-.47.19-.94.62-1.4,1.3-.04.03-.06.09-.07.17,0,.08-.03.14-.05.17-.06.08-.15.12-.26.12-.2,0-.44-.1-.72-.29-.12-.07-.24-.13-.36-.2-.14-.08-.22-.15-.22-.21-.01-.14.14-.4.45-.8.34-.42.71-.78,1.12-1.07.49-.36.92-.54,1.3-.54.14,0,.28.05.41.14.13.09.25.19.37.28.49.34.79.65.93.95.02.06.04.14.04.23,0,.42-.22,1.1-.67,2.05-.42.89-.87,1.67-1.35,2.33.19-.06.44-.15.77-.27.04-.02.1-.06.19-.13.06-.04.12-.06.17-.05.14.02.35.19.61.51.26.32.4.54.41.65Z"/><path class="cls-1" d="m35,245.38c-.04.42-.31.92-.82,1.51.61.51.91,1.09.91,1.75s-.3,1.32-.89,1.93c-.54.55-1.05.84-1.52.87-.19.01-.58-.22-1.18-.7-.58-.47-.87-.76-.87-.88,0-.14.06-.26.2-.38.14-.11.27-.17.4-.16.08,0,.22.12.4.33.19.22.36.34.51.37.25.05.58-.2,1-.75.4-.52.6-.91.6-1.16,0-.11-.07-.16-.21-.16-.1,0-.21.05-.34.14-.1.07-.19.13-.28.2-.09.07-.18.1-.27.09-.1-.01-.27-.11-.49-.29-.22-.18-.41-.37-.55-.56-.03-.04-.04-.09-.04-.14,0-.17.08-.29.24-.36.23-.1.5-.32.83-.65.47-.49.76-1,.87-1.55-.24.05-.51.28-.8.67-.29.39-.48.6-.55.63-.11.04-.33-.03-.65-.22-.32-.19-.53-.35-.63-.49-.02-.02-.03-.05-.03-.09,0-.1.08-.23.24-.41.5-.56.84-.91,1.03-1.07.39-.33.76-.49,1.12-.47.4.02.8.27,1.22.73.42.46.61.88.56,1.27Z"/><path class="cls-1" d="m29.52,260.85c.02.17-.09.3-.33.37-.08-.01-.19,0-.34,0-.11,0-.45.09-1.02.26-.64.18-1.12.35-1.43.5-.08.04-.16.1-.23.17s-.11.1-.13.1c-.09.01-.35-.14-.78-.47-.12-.07-.24-.15-.36-.23-.12-.08-.18-.18-.19-.3,0-.04.26-.43.78-1.18.64-.91,1.14-1.67,1.49-2.29.55-.97.84-1.73.88-2.29-.47.19-.94.62-1.4,1.3-.04.03-.06.09-.07.17,0,.08-.03.14-.05.17-.06.08-.15.12-.26.12-.2,0-.44-.1-.72-.29-.12-.07-.24-.13-.36-.2-.14-.08-.22-.15-.22-.21-.01-.14.14-.4.45-.8.34-.42.71-.78,1.12-1.07.49-.36.92-.54,1.29-.54.14,0,.28.05.41.14.13.09.25.19.37.28.49.34.79.65.93.95.02.06.04.14.04.23,0,.42-.22,1.1-.67,2.05-.42.89-.87,1.67-1.35,2.33.19-.06.44-.15.77-.27.04-.02.1-.06.19-.13.06-.04.12-.06.17-.05.14.02.35.19.61.51.26.32.4.54.41.65Z"/><path class="cls-1" d="m36.06,259.07c0,.13-.13.25-.39.34-.26.04-.55.09-.87.15v2.11s0,.06.02.11.01.09,0,.13c-.01.13-.07.24-.17.33-.11.09-.21.13-.3.12-.37-.05-.77-.33-1.22-.86-.05-.06-.07-.17-.05-.31,0-.03.02-.07.06-.11.04-.04.06-.08.06-.12v-1.18c-.5.16-.87.28-1.12.35-.45.13-.76.2-.93.21-.14.01-.37-.09-.68-.31-.27-.19-.44-.34-.52-.46-.03-.04-.04-.09-.04-.13,0-.07.07-.2.2-.39.07-.06.16-.16.28-.31.01-.01.48-.75,1.4-2.21.9-1.43,1.38-2.17,1.45-2.21.2-.12.35-.18.44-.17.14,0,.38.13.74.38.35.25.54.43.57.55.02.07-.04.2-.18.39v2.45c.2-.04.31-.05.32-.05.07,0,.13.02.19.06.11.1.26.29.46.6.2.3.3.48.3.54Zm-2.84-.75v-1.24l-.96,1.57.96-.32Z"/></svg>