<?xml version="1.0" encoding="UTF-8"?><svg id="Layer_1" xmlns="http://www.w3.org/2000/svg" width="371.47" height="221.43" viewBox="0 0 371.47 221.43"><defs><style>.cls-1{fill:#223b44;stroke-width:0px;}</style></defs><path class="cls-1" d="m76.71,9.87C43.6,31.15,17.77,63.84,9.42,102.73c-2.96,14.25-5.03,29.09-3.61,43.63,1.95,18.99,10.82,37.68,25.95,49.62,14.49,11.33,36.37,15.16,53.14,7,12.48-6.21,21.07-19.28,22.52-33.07,2.46-19.43-11.32-36.43-29.18-43.04-3.27-1.32-7.02-2.2-10.52-2.5-1.71-.21-3.7-.05-5.43-.03-.9.13-2.69.39-3.59.53-8.78,1.87-17.44,5.14-24.84,10.33-7.01,4.77-13.26,10.96-18.18,17.86-3.02,3.9-5.38,8.24-7.75,12.59,0,0-.91-.41-.91-.41,5.95-15.18,16.86-29,31.21-37.15,3.36-1.84,6.91-3.54,10.58-4.66,4.33-1.34,8.85-1.73,13.35-1.86,11-.23,21.82,2.65,31.33,8.26,14.07,7.92,21.89,24.82,19.97,40.7-1.6,15.87-11.35,30.97-25.81,37.99-14.34,7.03-31.56,6.03-46.04.09-14.54-6.08-25.73-18.28-32.77-32.13-4.75-9.16-7.32-19.32-8.43-29.55-1.35-15.23.81-30.44,3.84-45.35C12.57,61.93,39.63,26.57,76.22,9c0,0,.49.87.49.87h0Z"/><path class="cls-1" d="m206.44,18.93c-23.67,0-47.4-.67-70.94,1.53-6.32.95-13.86,1.28-17.49,6.76-1.11,1.67-.88,3.56-.9,5.59,0,0,.57,14.2.57,14.2.36,9.52.28,19.1.22,28.53.03,3.42-.06,6.83.63,10.08,1.4,6.22,7.22,4.9,12.26,4.54,4.75-.38,9.56-.68,14.39-.65,6.91.02,14.54.37,21.47.73,26.69,1.84,53.39,17.37,63.96,42.64,7.99,18.02,9.92,40.63-1.47,57.67-10.23,14.72-28.42,21.96-45.85,22.53-22.03.49-43.16-8.91-60.13-22.25,0,0,.61-.79.61-.79,7.6,5.61,16.02,10.11,24.93,12.99,30.07,10.06,77.09,2.78,81.65-34.7,1.51-11.22-.56-22.83-4.83-33.28-8.33-21.86-29.65-36.31-52.24-40.25-4.6-.86-9.27-1.04-13.94-1.27-7.06-.3-14.11-.54-21.15,0-2.34.17-4.68.4-7.03.65-3.67.27-8.02,1.34-11.73-.57-6.55-3.36-6.09-11.81-6.32-18.05-.07-4.79-.06-9.52-.08-14.25-.1-8.33-.29-20.04-.63-28.45-.04-1.54.03-3.33.37-4.97,2.6-9.4,14.37-10.86,22.33-11.47,14.31-1.01,28.62-.64,42.91-.24,9.51.31,19,.87,28.47,1.74,0,0-.05,1-.05,1h0Z"/><path class="cls-1" d="m299.3,141.91c-20-5.95-38.82,3.35-41.88,24.84-1.54,8.93-.84,18.91,4.84,26.14,9.28,11.94,26.83,12.41,39.99,7.1,0,0,.44.9.44.9-4.9,2.72-10.38,4.66-16.12,5.18-8.72.92-18-1.29-24.69-7.17-9.22-8.02-10.47-21.52-8.01-32.78,2.65-15.04,13.5-26.52,29.11-27.57,5.69-.32,11.36.49,16.66,2.42l-.34.94h0Z"/><path class="cls-1" d="m315.47,119.94c1.17,17.56,1.04,35.52,1.05,53.12-.31,7.19-.8,24.46-1.05,31.88,0,0-1,.06-1,.06-1.21-10.11-.12-20.68,4.3-30.09,2.59-5.58,6.84-10.57,12.02-14.09,10.47-6.87,26.89-6.06,34.03,5.3,2.95,4.52,4.17,9.73,5.25,14.85,1.66,7.5,1.9,15.51.39,23.03,0,0-.99-.13-.99-.13.84-9.97-1.21-19.95-4.57-29.29-3.4-9.82-11.08-14.7-21.39-13.73-4.07.33-8.34,1.05-11.97,3.06-9.32,5.14-14.07,15.8-15.76,25.95-.82,4.94-.85,10.01-.31,15,.01.01-1,.06-1,.06-.13-7.53-.85-24.61-1.05-31.88,0-10.3-.04-21.64.2-31.87.16-7.08.32-14.17.85-21.25,0,0,1,0,1,0h0Z"/></svg>