<?xml version="1.0" encoding="UTF-8"?><svg id="Layer_1" xmlns="http://www.w3.org/2000/svg" width="271.01" height="304.19" viewBox="0 0 271.01 304.19"><defs><style>.cls-1{fill:#223b44;stroke-width:0px;}</style></defs><path class="cls-1" d="m142.6,136.97c-6.33,15.45-1.32,36.13,14.75,43.23,14.75,6.52,37.39-1.73,38.4-19.43.29-4.98-.95-10.02-2.73-14.67-1.7-4.75-4.74-8.74-8.41-12.19-7.5-6.93-15.72-13.13-23.22-20.12-5.11-4.6-9.58-9.84-14.39-14.73-9.48-9.87-19.12-19.57-29.15-28.89-5.09-4.59-9.92-9.87-13.41-15.79-5.55-8.68-11.12-18.87-9.99-29.75C96.18,10.13,111.14-1.34,125.59.13c12.05,1.26,21.08,12.2,23.22,23.6,2.17,13.59-4.45,29.19-12.96,39.57-6.38,7.63-15.21,14.53-22.75,21.05-12.98,11.04-25.37,22.92-36.11,36.17-5.09,6.41-10.59,12.85-13.53,20.49-8.36,23.33-4.15,51.28,17.85,65.47,11.08,7.29,23.16,14.18,35.48,19.31,6.22,2.54,12.66,4.52,19.23,6.5,13.24,3.8,26.24,9.26,38.13,16.25,5.96,3.42,11.59,7.32,17.48,10.83,5.83,3.49,11.78,6.9,17.72,10.24,5.95,3.3,11.94,6.6,18.13,9.14,6.12,2.61,12.56,3.67,18.99,1.66,9.21-2.64,18.36-9.01,21.01-18.55,3.36-13.19-7.09-25.63-17.98-31.89-13.9-7.39-34.69-1.59-48.89,3.21-12.95,4.41-23.99,12.7-35.83,19.41-29.67,17.02-61.04,32.83-95.39,37.27-6.85.91-13.85,1.19-20.74.53-10.28-.72-21.12-2.33-30.16-7.83-6.15-3.7-10.84-9.41-14.12-15.74-5.86-10.11-6.63-22.81,2.73-31.2,8.82-8.31,28.76-11.74,40.42-9.39,6.83,1.25,13.28,4.37,19.21,7.9,17.47,10.91,33.4,23.91,50.23,35.71,16.62,11.95,34.05,23.19,51.04,34.34-30.4-15.82-58.88-35.16-85.79-56.33-13.21-9.88-27.55-21.79-45.02-20.26-15.17,1.23-33.43,10.82-31.76,28.35.92,13.72,10.68,24.27,23.61,28.25,7.89,2.65,16.54,3.36,24.9,3.92,11.86.42,23.66-1.65,35.14-4.53,19.89-4.92,38.68-13.25,56.64-23.03,6.04-3.21,12.03-6.46,17.92-9.91,11.89-6.79,23.07-15.19,36.18-19.68,14.93-5.07,36.12-10.98,50.9-3.17,9.16,5.2,17.15,13.53,19.67,24,3.66,15.22-9.37,27.86-23.06,31.63-6.83,2.26-14.56,1.15-21.06-1.58-6.52-2.57-12.59-5.82-18.64-9.06-12.11-6.37-23.77-13.63-35.54-20.59-11.84-6.71-24.26-11.76-37.4-15.37-6.56-1.89-13.24-3.85-19.72-6.4-12.97-5.25-24.95-11.84-36.72-19.5-22.58-14.55-28.57-41.89-21.65-66.72,2.39-10.57,10.06-19.13,17.31-26.46,8.41-8.6,21.38-19.69,30.26-28,8.69-8.03,22.31-18.86,29.39-28.26,7.34-9.95,12.89-24.45,10.52-36.83-2.69-12.06-13.99-22.42-26.93-18.48-8.74,2.46-17.02,9.76-18.61,19.04-1.54,9.9,3.19,19.3,8.07,27.85,1.73,2.96,3.4,5.86,5.51,8.45,12.88,14.86,30.12,28.98,44.1,42.87,7.21,7.32,15.08,13.71,22.63,20.69,8.45,7.55,14.8,13.93,17.45,25.39,1.81,6.71,1.84,14.46-2.06,20.48-7.66,11.92-24.7,16.19-37.5,10.69-13.14-5.76-19.65-21.21-17.5-34.94.51-3.43,1.59-6.74,2.93-9.91l.44.19h0Z"/></svg>