<?xml version="1.0" encoding="UTF-8"?><svg id="Layer_1" xmlns="http://www.w3.org/2000/svg" width="440" height="475" viewBox="0 0 440 475"><defs><style>.cls-1{fill:#f1f2f0;stroke:#f1f2f0;}.cls-1,.cls-2{stroke-miterlimit:10;}.cls-2{fill:#355561;stroke:#143840;}.cls-3{fill:#223b44;stroke-width:0px;}</style></defs><rect class="cls-1" x=".5" y="105.5" width="439" height="369"/><circle class="cls-2" cx="220.5" cy="110.5" r="110"/><path class="cls-3" d="m128.59,327.25c0-12.48,6.72-20.4,16.08-20.4s16.08,7.92,16.08,20.4-6.72,20.64-16.08,20.64-16.08-8.16-16.08-20.64Zm30.12,0c0-11.4-5.64-18.6-14.04-18.6s-14.04,7.2-14.04,18.6,5.64,18.84,14.04,18.84,14.04-7.44,14.04-18.84Z"/><path class="cls-3" d="m169.87,318.49h1.56l.24,4.56h.12c2.64-3,6-5.28,9.12-5.28,4.68,0,6.96,2.4,7.92,6,3.36-3.72,6.6-6,9.84-6,5.64,0,8.52,3.48,8.52,10.92v18.48h-1.8v-18.24c0-6.36-2.16-9.48-6.84-9.48-2.88,0-5.76,1.92-9.12,5.76v21.96h-1.8v-18.24c0-6.36-2.16-9.48-6.84-9.48-2.76,0-5.76,1.92-9.12,5.76v21.96h-1.8v-28.68Z"/><path class="cls-3" d="m230.23,318.49h1.56l.24,4.56h.12c2.64-3,6-5.28,9.12-5.28,4.68,0,6.96,2.4,7.92,6,3.36-3.72,6.6-6,9.84-6,5.64,0,8.52,3.48,8.52,10.92v18.48h-1.8v-18.24c0-6.36-2.16-9.48-6.84-9.48-2.88,0-5.76,1.92-9.12,5.76v21.96h-1.8v-18.24c0-6.36-2.16-9.48-6.84-9.48-2.76,0-5.76,1.92-9.12,5.76v21.96h-1.8v-28.68Z"/><path class="cls-3" d="m277.51,309.13c0-1.32.96-2.04,2.04-2.04s2.04.72,2.04,2.04c0,1.2-.96,2.04-2.04,2.04s-2.04-.84-2.04-2.04Zm1.08,9.36h1.8v28.68h-1.8v-28.68Z"/><path class="cls-3" d="m289.39,353.17c0-2.52,1.68-5.16,4.32-7.08v-.24c-1.44-.84-2.52-2.4-2.52-4.56,0-2.64,1.92-4.44,3.12-5.28v-.24c-1.8-1.56-3.6-4.44-3.6-7.92,0-5.76,4.32-10.08,9.84-10.08,1.56,0,2.88.36,3.72.72h9.6v1.68h-6.96c2.04,1.68,3.48,4.44,3.48,7.68,0,5.76-4.32,10.2-9.84,10.2-1.68,0-3.6-.48-4.92-1.32-1.32,1.08-2.52,2.4-2.52,4.44,0,2.16,1.2,3.96,5.64,3.96h6.36c6.36,0,9.24,2.04,9.24,6.48,0,4.8-5.16,9.6-13.2,9.6-7.32,0-11.76-3.24-11.76-8.04Zm23.04-1.44c0-3.36-2.4-4.68-6.96-4.68h-6.6c-.36,0-1.92-.12-3.48-.48-2.88,1.92-4.08,4.32-4.08,6.48,0,3.84,3.6,6.48,9.96,6.48,6.84,0,11.16-3.96,11.16-7.8Zm-3.96-23.88c0-5.1-3.6-8.4-7.92-8.4s-7.92,3.24-7.92,8.4,3.72,8.52,7.92,8.52,7.92-3.48,7.92-8.52Z"/></svg>