<?xml version="1.0" encoding="UTF-8"?><svg id="Layer_1" xmlns="http://www.w3.org/2000/svg" width="440" height="475" viewBox="0 0 440 475"><defs><style>.cls-1{fill:#f1f2f0;stroke:#f1f2f0;}.cls-1,.cls-2{stroke-miterlimit:10;}.cls-2{fill:#adc8d7;stroke:#789eb3;}.cls-3{fill:#223b44;stroke-width:0px;}</style></defs><rect class="cls-1" x=".5" y="105.5" width="439" height="369"/><circle class="cls-2" cx="220.5" cy="110.5" r="110"/><path class="cls-3" d="m156.61,347.41v-24.84h1.92v24.36c0,10.92,5.28,14.16,11.04,14.16s11.28-3.24,11.28-14.16v-24.36h1.8v24.84c0,12.24-6.72,15.48-13.08,15.48s-12.96-3.24-12.96-15.48Z"/><path class="cls-3" d="m201.01,341.65l-11.16-19.08h2.04l6.96,12.24c1.08,1.8,1.92,3.12,3.24,5.28h.24c1.2-2.16,1.92-3.48,3-5.28l6.96-12.24h1.92l-11.16,19.2,12,20.4h-2.04l-7.32-12.72c-1.08-1.92-2.28-3.84-3.72-6.24h-.24c-1.32,2.4-2.4,4.32-3.48,6.24l-7.32,12.72h-1.92l12-20.52Z"/><path class="cls-3" d="m235.81,319.57h1.8l-19.2,52.2h-1.8l19.2-52.2Z"/><path class="cls-3" d="m243.61,347.41v-24.84h1.92v24.36c0,10.92,5.28,14.16,11.04,14.16s11.28-3.24,11.28-14.16v-24.36h1.8v24.84c0,12.24-6.72,15.48-13.08,15.48s-12.96-3.24-12.96-15.48Z"/><path class="cls-3" d="m281.53,322.57h1.92v39.6h-1.92v-39.6Z"/></svg>