<?xml version="1.0" encoding="UTF-8"?><svg id="Layer_1" xmlns="http://www.w3.org/2000/svg" width="440" height="475" viewBox="0 0 440 475"><defs><style>.cls-1{fill:#f1f2f0;stroke:#f1f2f0;}.cls-1,.cls-2{stroke-miterlimit:10;}.cls-2{fill:#789eb3;stroke:#547e91;}.cls-3{fill:#223b44;stroke-width:0px;}</style></defs><rect class="cls-1" x=".5" y="105.5" width="439" height="369"/><circle class="cls-2" cx="220.5" cy="110.5" r="110"/><path class="cls-3" d="m110.89,328.57h1.68l14.16,39.6h-2.04l-8.28-23.76c-1.68-4.8-3.12-8.88-4.56-13.8h-.24c-1.44,4.92-2.88,9-4.56,13.8l-8.4,23.76h-1.92l14.16-39.6Zm-8.04,23.76h17.58v1.68h-17.58v-1.68Z"/><path class="cls-3" d="m133.09,339.49h1.56l.24,4.56h.12c3-3,6-5.28,9.96-5.28,5.88,0,8.64,3.48,8.64,10.92v18.48h-1.8v-18.24c0-6.36-2.04-9.48-6.96-9.48-3.6,0-6.24,1.92-9.96,5.76v21.96h-1.8v-28.68Z"/><path class="cls-3" d="m163.57,330.13c0-1.32.96-2.04,2.04-2.04s2.04.72,2.04,2.04c0,1.2-.96,2.04-2.04,2.04s-2.04-.84-2.04-2.04Zm1.08,9.36h1.8v28.68h-1.8v-28.68Z"/><path class="cls-3" d="m177.97,339.49h1.56l.24,4.56h.12c2.64-3,6-5.28,9.12-5.28,4.68,0,6.96,2.4,7.92,6,3.36-3.72,6.6-6,9.84-6,5.64,0,8.52,3.48,8.52,10.92v18.48h-1.8v-18.24c0-6.36-2.16-9.48-6.84-9.48-2.88,0-5.76,1.92-9.12,5.76v21.96h-1.8v-18.24c0-6.36-2.16-9.48-6.84-9.48-2.76,0-5.76,1.92-9.12,5.76v21.96h-1.8v-28.68Z"/><path class="cls-3" d="m224.17,361.15c0-6.42,5.88-9.42,18.84-10.86.12-4.68-1.08-9.84-7.08-9.84-4.08,0-7.56,2.04-9.36,3.48l-.96-1.44c1.8-1.32,5.76-3.72,10.44-3.72,6.72,0,8.76,5.04,8.76,10.8v18.6h-1.56l-.24-3.84h-.12c-3,2.4-6.6,4.56-10.44,4.56-4.44,0-8.28-2.28-8.28-7.74Zm18.84,1.14v-10.44c-12.6,1.44-16.92,4.32-16.92,9.24,0,4.44,3,6.12,6.48,6.12s6.6-1.68,10.44-4.92Z"/><path class="cls-3" d="m255.49,360.61v-19.44h-4.56v-1.44l4.56-.24.24-8.4h1.56v8.4h8.52v1.68h-8.52v19.68c0,3.72.84,6.36,5.04,6.36,1.08,0,2.64-.48,3.72-.96l.6,1.56c-1.68.6-3.48,1.08-4.44,1.08-5.28,0-6.72-3.36-6.72-8.28Z"/><path class="cls-3" d="m271.93,330.13c0-1.32.96-2.04,2.04-2.04s2.04.72,2.04,2.04c0,1.2-.96,2.04-2.04,2.04s-2.04-.84-2.04-2.04Zm1.08,9.36h1.8v28.68h-1.8v-28.68Z"/><path class="cls-3" d="m283.81,353.89c0-9.6,5.88-15.12,12.72-15.12s12.72,5.52,12.72,15.12-5.88,15-12.72,15-12.72-5.52-12.72-15Zm23.52,0c0-7.92-4.68-13.44-10.8-13.44s-10.8,5.52-10.8,13.44,4.68,13.32,10.8,13.32,10.8-5.4,10.8-13.32Z"/><path class="cls-3" d="m318.25,339.49h1.56l.24,4.56h.12c3-3,6-5.28,9.96-5.28,5.88,0,8.64,3.48,8.64,10.92v18.48h-1.8v-18.24c0-6.36-2.04-9.48-6.96-9.48-3.6,0-6.24,1.92-9.96,5.76v21.96h-1.8v-28.68Z"/></svg>