<?xml version="1.0" encoding="UTF-8"?><svg id="Layer_1" xmlns="http://www.w3.org/2000/svg" width="625.22" height="549.35" viewBox="0 0 625.22 549.35"><defs><style>.cls-1{fill:none;stroke:#000;stroke-miterlimit:10;stroke-width:4px;}.cls-2{stroke-width:0px;}</style></defs><path class="cls-1" d="m248.72,509.35c-1.4-1.43-3.07-3.75-4.18-7.66-2.02-7.15-.85-15.11-.64-16.6,1.2-8.27,1.86-16.61,2.86-24.91,1.44-11.97,2.16-17.96,1.75-25.6-.34-6.47-1.02-17.18-6.79-29.23-3.27-6.83-6.87-11.45-7.84-12.59-8.75-10.3-18.85-12.69-34.16-33.41-5.68-7.69-45.1-62.87-28.5-129.5,13.09-52.56,53.2-80.73,63.5-87.5,48.13-31.62,115.81-36.28,169-3,5.68,3.55,60.5,39.03,69,102,9.07,67.17-39.88,126.21-48,136-13.26,16-19.72,18.42-26,33-1.83,4.24-5.6,13.87-5.97,32.93-.21,10.78.75,19.72,1.66,28.21.82,7.62,1.87,14.56,1.28,24.69-.39,6.58-.58,9.87-1.47,11.66-5.58,11.25-29.38,5.22-66.5,5.5-65.22.49-71.89,3.28-79-4Z"/><line class="cls-1" x1="250.72" y1="527.35" x2="390.72" y2="526.35"/><line class="cls-1" x1="256.72" y1="537.35" x2="383.72" y2="536.35"/><line class="cls-1" x1="263.72" y1="547.35" x2="379.72" y2="547.35"/><path class="cls-2" d="m290.22,514.36c2.15-15.17,4.25-30.35,5.93-45.58,1.69-15.28,2.95-30.61,3.4-45.98.44-15.23.07-30.5-1.57-45.65s-4.42-29.65-8.86-43.96c-2.23-7.19-4.86-14.24-7.9-21.13-2.71-6.14-5.87-12.29-10.66-17.09-4.31-4.31-9.8-7.11-15.96-7.21-5.48-.09-11.08,2-14.28,6.61-3.56,5.12-2.86,11.98.03,17.23,3.29,5.96,9.38,9.54,15.75,11.39,6.73,1.96,14.01,2.41,20.99,2.21s13.87-1.21,20.59-2.98c13.43-3.55,26.05-10.16,36.49-19.33,5.12-4.49,9.82-9.81,12.28-16.25,2.27-5.96,2.04-12.59-1.84-17.82-3.35-4.52-9-7.9-14.77-6.49-6.44,1.57-10.04,8.44-11.66,14.33-3.44,12.5.88,26.2,9.09,35.9,8.98,10.61,22.59,16.45,36,18.95,13.24,2.47,29.03,3.03,40.47-5.27,4.93-3.57,9.03-9.31,7.48-15.68-1.22-5.03-5.62-8.59-10.26-10.39-5.23-2.03-10.88-1.68-15.83.91-5.66,2.96-9.86,8.07-13.1,13.46-3.6,5.98-6.3,12.51-8.95,18.94-2.89,7.02-5.5,14.16-7.82,21.39-4.67,14.53-8.18,29.43-10.52,44.51-2.32,15-3.52,30.17-3.53,45.35s1.17,30.35,3.52,45.34c1.14,7.29,2.57,14.52,4.27,21.7.44,1.88,3.34,1.08,2.89-.8-6.63-28.01-8.94-56.97-7.02-85.69,1.91-28.55,8.02-56.84,18.18-83.6,2.45-6.46,5.09-12.88,8.09-19.1,2.64-5.48,5.74-10.94,10.23-15.14,3.92-3.66,8.87-6.13,14.32-5.52,4.54.51,9.36,2.93,11.68,7,2.88,5.05,0,10.46-4.04,13.87-5.04,4.26-11.79,6.29-18.25,6.96s-13.16.21-19.6-.89-12.98-2.92-18.98-5.73c-11.46-5.39-21-14.48-24.81-26.79-1.74-5.62-2.26-11.69-.96-17.46,1.21-5.4,4.25-12.65,10.38-13.77,5.21-.95,10.12,3.19,12.37,7.53,2.89,5.58,1.14,12.12-1.92,17.24-3.31,5.54-8.19,10.04-13.24,13.98s-10.94,7.5-16.94,10.27c-11.88,5.49-25.03,8.3-38.12,8.09-11.69-.19-28.05-2.46-31.79-15.75-1.46-5.19.05-10.82,4.83-13.68,4.42-2.64,10.19-2.59,14.89-.73,5.62,2.22,9.77,7.26,12.8,12.3,3.51,5.84,6.1,12.28,8.49,18.64,9.99,26.61,13.84,55.05,14.21,83.36.38,28.93-2.68,57.79-6.49,86.43-.92,6.93-1.89,13.85-2.87,20.76-.11.81.2,1.6,1.05,1.85.7.2,1.73-.25,1.85-1.05h0Z"/><path class="cls-2" d="m133.03,280.85c-21.65-1.78-43.3-3.56-64.95-5.34-6.13-.5-12.25-1.01-18.38-1.51-1.92-.16-1.91,2.84,0,3,21.67,1.78,43.35,3.57,65.02,5.35,6.1.5,12.21,1,18.31,1.51,1.92.16,1.91-2.84,0-3h0Z"/><path class="cls-2" d="m168.49,175.93c-17.38-14.26-34.75-28.53-52.13-42.79-4.94-4.05-9.87-8.11-14.81-12.16-1.48-1.22-3.62.9-2.12,2.12,17.38,14.26,34.75,28.53,52.13,42.79,4.94,4.05,9.87,8.11,14.81,12.16,1.48,1.22,3.62-.9,2.12-2.12h0Z"/><path class="cls-2" d="m320.05,95.32c.16-17.66.17-35.32.03-52.97-.04-5.06-.09-10.11-.16-15.17-.02-1.93-3.02-1.93-3,0,.23,17.66.3,35.32.23,52.97-.02,5.06-.06,10.11-.1,15.17-.02,1.93,2.98,1.93,3,0h0Z"/><path class="cls-2" d="m474.08,152.33c21.81-11.49,44.06-22.16,66.69-31.96,6.44-2.79,12.91-5.5,19.41-8.15,1.76-.72.99-3.62-.8-2.89-23.03,9.37-45.71,19.61-67.95,30.73-6.32,3.16-12.61,6.39-18.86,9.68-1.71.9-.19,3.49,1.51,2.59h0Z"/><path class="cls-2" d="m517.21,279.49c27.72,0,55.44,0,83.15,0,7.8,0,15.6,0,23.4,0,1.93,0,1.93-3,0-3-27.72,0-55.44,0-83.15,0-7.8,0-15.6,0-23.4,0-1.93,0-1.93,3,0,3h0Z"/><path class="cls-2" d="m184.98,2.24c15.84,26.81,31.09,53.98,45.71,81.47,4.11,7.73,8.17,15.49,12.19,23.28.89,1.72,3.47.2,2.59-1.51-14.27-27.68-29.17-55.04-44.67-82.05-4.36-7.6-8.77-15.16-13.23-22.7-.98-1.66-3.58-.15-2.59,1.51h0Z"/><path class="cls-2" d="m499.42,1.6c-10.2,13.88-20.4,27.75-30.61,41.63-10.25,13.94-20.5,27.89-30.75,41.83-5.77,7.84-11.53,15.69-17.3,23.53-1.14,1.56,1.46,3.06,2.59,1.51,10.2-13.88,20.4-27.75,30.61-41.63,10.25-13.94,20.5-27.89,30.75-41.83,5.77-7.84,11.53-15.69,17.3-23.53,1.14-1.56-1.46-3.06-2.59-1.51h0Z"/><path class="cls-2" d="m601.97,189.52c-28.81,2.44-57.39,7.56-85.23,15.36-7.81,2.19-15.56,4.59-23.24,7.18-1.82.62-1.04,3.51.8,2.89,27.11-9.17,55.08-15.8,83.43-19.74,8.06-1.12,16.14-2.01,24.25-2.7,1.91-.16,1.93-3.16,0-3h0Z"/><path class="cls-2" d="m128.79,222.61c-17.22-1.52-34.31-4.39-51.08-8.56-16.76-4.17-33.19-9.62-49.11-16.31-8.96-3.76-17.74-7.94-26.33-12.47-1.71-.9-3.22,1.69-1.51,2.59,15.45,8.15,31.53,15.11,48.06,20.78,16.55,5.68,33.53,10.07,50.76,13.11,9.68,1.71,19.43,2.99,29.22,3.86,1.92.17,1.91-2.83,0-3h0Z"/></svg>