<?xml version="1.0" encoding="UTF-8"?><svg id="Layer_1" xmlns="http://www.w3.org/2000/svg" width="628.5" height="385.41" viewBox="0 0 628.5 385.41"><defs><style>.cls-1{fill:none;stroke:#000;stroke-miterlimit:10;stroke-width:2px;}.cls-2{stroke-width:0px;}</style></defs><path class="cls-2" d="m-1.64,384.93c93.83-114.36,226.7-183.66,376.46-174.1,12.68.84,25.6,2.35,38.16,4.4,7.57,1.23,15.09,2.82,22.56,4.5,0,0-.08.46-.08.46-17.71-2.07-35.43-3.63-53.24-4.14-119.48-3.79-223.87,30.68-315.99,107.26-23.54,19.38-45.23,40.86-65.6,63.57,0,0-2.28-1.96-2.28-1.96h0Z"/><path class="cls-2" d="m303.25,216.76c-12.13-25.09-15.24-55.17-5.35-81.54,5.8-15.83,16.3-29.33,27.16-41.97,9.06-10.48,18.29-20.84,28.45-30.26,16.35-15.07,35.32-27.31,55.29-36.95,5.72-2.77,12.79-6.23,18.38-9.18,2.68-1.46,6.03-3.51,8.54-5.23.74-.58,2.32-1.84,3.08-2.43.64-.48,1.13-1.01,2-1.32.61-.2,1.43-.32,2.17.01,1.11.55,1.45,1.2,1.71,1.88.47,1.52.22,3.1.03,4.54-3.34,16.38-9.59,31.9-15.22,47.54-7.95,20.59-16.02,41.04-24.96,61.23-8.75,20.32-21.17,39.11-36.72,54.9-15.42,15.92-33.65,29-53.33,39.15,0,0-1.34-2.68-1.34-2.68,19.65-9.56,37.76-22.4,53.06-38.04,24.62-24.36,36.51-53.11,48.53-84.85,7.99-20.46,15.51-41.14,21.7-62.18.76-2.63,1.49-5.26,2.15-7.89.76-3.41,1.82-6.81,1.72-10.19,0-.04,0-.04,0-.02.02.03.02.08.04.11.03.06.28.57.89.8.54.19.95.15,1.25.03-1.08.89-2.86,2.34-3.96,3.23-1.75,1.17-3.54,2.49-5.33,3.53-4.63,2.84-9.89,5.5-14.69,7.95-26.99,13.04-52.63,29.25-73.26,51.2-5.72,5.88-11.24,12.03-16.68,18.14-10.71,12.17-21.09,25.08-26.9,40.35-5.85,15.1-7.32,31.78-5.01,47.78,1.55,10.72,4.75,21.21,9.32,31.07,0,0-2.71,1.28-2.71,1.28h0Z"/><path class="cls-2" d="m369.11,212.47c20.21,27.07,49.25,47.07,82.11,54.88,10.91,2.68,22.03,4.28,33.21,5.55,8.07.92,17.11,2.15,25.23,3.13,13.97,1.4,28.1,1.43,42.08.28,16.93-1.28,33.38-5.45,50.08-8.71,5.01-.92,10.17-1.6,15.29-1.56,0,0,1.12-.01,1.12-.01,0,0,.28,0,.28,0,.02,0,0-.02-.25.08-.11.05-.35.16-.6.41-.41.4-.72,1.11-.56,1.67-.03-.03,0-.01-.05-.11l-.14-.27c-2.55-3.88-6.19-7.08-9.61-10.27-4.15-3.74-8.52-7.29-13-10.69-44.68-33.21-100.25-57.15-156.82-51.68-22.39,2.2-44.35,8.66-64.52,18.75,0,0-1.35-2.68-1.35-2.68,20.4-10.39,42.69-17.14,65.51-19.56,62.31-6.52,126.63,22.57,173.45,62.2,3.26,2.94,6.49,5.92,9.28,9.4,1.43,1.75,3.37,4.73,1.35,6.8-1.24,1.21-2.71.95-4.14,1.02-3.37,0-6.87.33-10.2.88-6.95,1.06-13.74,2.79-20.71,4.25-22.33,5.03-45.49,7.18-68.38,5.93-11.18-.41-23.1-1.3-34.17-2.85-17.07-2.3-34.18-5.63-50.26-12.02-26.87-10.58-50.07-29.71-66.67-53.05,0,0,2.42-1.77,2.42-1.77h0Z"/><path class="cls-2" d="m246.98,225.24c-3.95,35.34,8.11,71.49,44.03,84.17,19.65,7.45,40.52,10.72,61.07,14.83,39.75,7.78,77.01,10.78,114.13-8.57,1.03-.53,2-1.24,2.65-1.81-.02.04-.04.08-.05.13-.12.42.14,1.11.57,1.26-3.56-.24-7.24.61-10.9.83-5.65.51-11.41.77-17.14.12-17.22-1.66-32.96-10.63-45.61-21.98-4.24-3.86-7.88-8.04-11.98-11.98-7.96-7.95-16.24-15.52-24.58-23.08-20.51-18.64-41.84-39.33-71.3-39.64-11.1-.3-22.16,1.91-32.59,5.66,0,0-.99-2.83-.99-2.83,16.13-5.53,34-7.33,50.59-2.67,16.58,4.57,30.51,15.48,43.15,26.61,12.59,11.3,25.26,22.48,37.35,34.31,4.04,3.84,7.85,8.13,11.96,11.82,8.32,7.33,17.74,13.57,28.19,17.34,10.46,3.85,21.62,4.58,32.66,3.28,3.53-.31,7.06-.99,10.71-1.03.59.03,1.39.08,2.05.47.76.41,1.24,1.5.96,2.33-.66,1.87-2.58,2.7-4.09,3.69-38.2,20.36-75.47,17.6-116.52,9.84-15.21-2.89-30.54-5.79-45.54-9.79-12.4-3.47-24.85-7.69-35.22-15.61-23.66-17.8-30.25-50.05-26.55-78.03,0,0,2.98.34,2.98.34h0Z"/><path class="cls-2" d="m253.87,224.58c6.06,10.12,14.29,18.9,23.42,26.33,4.62,3.66,9.38,7.23,14.7,9.8,2.59,1.4,5.04,3.05,7.64,4.44,2.58,1.45,5.23,2.77,7.94,4.04,0,0-.14.45-.14.45-5.9-1.19-11.75-3.25-16.98-6.25-2.51-1.71-5.03-3.36-7.5-5.1-9.84-6.98-18.68-15.4-25.83-25.12-1.79-2.43-3.47-4.94-4.97-7.58,0,0,1.74-.99,1.74-.99h0Z"/><path class="cls-2" d="m309.61,216.76c1.77-16.68,7.83-32.68,15.8-47.34,10.46-19.58,23.39-37.87,39.03-53.64,3.87-3.95,7.89-7.75,12.04-11.39,0,0,.02.02.02.02-24.15,22.5-43,50.69-54.11,81.75-3.92,10.26-7.21,20.62-10.82,31.03,0,0-1.95-.43-1.95-.43h0Z"/><path class="cls-2" d="m228.31,231.75c-13.06-18.97-20.99-40.96-24.92-63.57,0,0,1.62,1.68,1.62,1.68-.39-.1-1.07-.49-1.39-1.12-.19-.38-.26-.65-.3-.99,0,0-.06-.43-.06-.43-.29-1.83-.49-4.02-.57-5.88-.54-17.78,1.93-35.54,5.75-52.85,2.5-10.76,4.93-21.74,9.82-31.73,6.49-11.4,10.81-23.98,12.07-37.06.63-8.68.38-17.56.26-26.3,0,0-.14-6.61-.14-6.61.02-1.9-.14-3.77.22-5.69.01-.05.04-.14.07-.2.04-.09.02-.1.11-.25.27-.47.79-.85,1.42-.74.6.12.71.35.96.64.08.12.09.11.13.17l.22.27c8.95,9.61,18.64,18.75,27.11,28.84,5.01,5.94,10.07,12.19,13.55,19.19,3.26,6.9,5.87,14.61,8.12,21.95,2.04,6.47,3.38,12.95,4.34,19.7,2.59,22.34-3.56,44.57-9.34,65.91-6.39,26.27-18.28,50.39-36.46,70.55,0,0-2.29-1.94-2.29-1.94,10.85-13.57,19.97-28.7,26.06-44.95,4.36-11.69,7.52-25.61,10.64-37.85,3.26-12.64,5.11-25.59,6.61-38.49.46-4.29.81-8.63.51-12.84-.84-8.42-3.16-17.19-5.66-25.3-1.86-5.58-3.77-11.36-6.37-16.68-1.63-3.19-3.92-6.65-6.04-9.53-9.66-13.34-21.62-24.94-32.72-37.09,0,0-.29-.37-.29-.37l-.12-.15c.27.45,1.2.53,1.58.11.11-.11.14-.14.19-.23.05-.1.03-.06.03-.07-.01.06-.03.14-.05.26-.4,8.03.17,16.57-.09,24.6.26,13.31-1.8,26.79-6.96,39.13-1.59,4.1-3.91,8.02-5.89,11.89-1.9,3.91-3.44,7.98-4.67,12.17-5.79,21.05-8.76,43.02-8.63,64.84.05,3.99.29,8.17.47,12.15,0,0,.03.4.03.4,0,.01.01.11,0,.05-.03-.17-.1-.4-.25-.63-.31-.49-.97-.74-1.34-.71l1.62,1.68c.51,5.57,1.13,11.19,2.54,16.64,2.71,10.91,6.76,21.5,12.08,31.4,2.65,4.96,5.65,9.73,8.89,14.31,0,0-2.46,1.71-2.46,1.71h0Z"/><path class="cls-2" d="m230.28,227.27c5.85-10.24,9.48-21.71,11.49-33.31.93-5.82,1.7-11.72,1.35-17.61-.05-2.94.19-5.88.13-8.83,0-2.96-.14-5.92-.37-8.91l.46-.1c1.85,5.73,2.92,11.84,2.87,17.87-.26,3.03-.47,6.04-.77,9.04-1.26,11.99-4.28,23.83-9.25,34.83-1.25,2.75-2.61,5.44-4.18,8.05,0,0-1.72-1.03-1.72-1.03h0Z"/><path class="cls-1" d="m211.69,235.49c.66-1,.06-2.49-.19-3.08-13.67-32.55-18.93-39.23-18.93-39.23-4.79-6.08-16.7-20.04-34.03-29.11-2.4-1.25-4.34-2.14-5.67-2.74-6.24-2.82-16.99-7.51-30.42-8.23-3.35-.18-5.89-.02-10.95.31-10.73.7-29.93,2.93-30,6-.04,1.98,7.88,1.32,18.86,8,5.56,3.38,10.43,7.72,13.18,10.23,9.59,8.76,14.86,15.75,19.48,21.44,14.35,17.7,32.86,27.35,32.86,27.35,11.73,5.75,11.91,2.26,36.62,8.97,2.06.56,7.82,2.15,9.19.08Z"/></svg>