<?xml version="1.0" encoding="UTF-8"?><svg id="Layer_1" xmlns="http://www.w3.org/2000/svg" width="440" height="475" viewBox="0 0 440 475"><defs><style>.cls-1{fill:#f1f2f0;stroke:#f1f2f0;}.cls-1,.cls-2{stroke-miterlimit:10;}.cls-2{fill:#547e91;stroke:#355561;}.cls-3{stroke-width:0px;}</style></defs><rect class="cls-1" x=".5" y="105.5" width="439" height="369"/><circle class="cls-2" cx="220.5" cy="110.5" r="110"/><path class="cls-3" d="m132.43,319.57h1.92v39.6h-1.92v-39.6Z"/><path class="cls-3" d="m146.11,330.49h1.56l.24,4.56h.12c3-3,6-5.28,9.96-5.28,5.88,0,8.64,3.48,8.64,10.92v18.48h-1.8v-18.24c0-6.36-2.04-9.48-6.96-9.48-3.6,0-6.24,1.92-9.96,5.76v21.96h-1.8v-28.68Z"/><path class="cls-3" d="m175.15,344.89c0-9.24,5.88-15.12,12.84-15.12,3.48,0,5.88,1.32,8.88,3.6l-.12-5.4v-12.12h1.8v43.32h-1.56l-.24-3.84h-.12c-2.4,2.4-5.64,4.56-9.6,4.56-7.2,0-11.88-5.28-11.88-15Zm21.6,8.28v-17.76c-3.24-2.88-5.88-3.96-8.88-3.96-6.12,0-10.8,6-10.8,13.44,0,7.92,3.6,13.32,10.08,13.32,3.36,0,6.36-1.8,9.6-5.04Z"/><path class="cls-3" d="m210.07,315.85h1.8v19.32c3.12-3.12,6.12-5.4,10.08-5.4,5.88,0,8.64,3.48,8.64,10.92v18.48h-1.8v-18.24c0-6.36-2.04-9.48-6.96-9.48-3.6,0-6.24,1.92-9.96,5.76v21.96h-1.8v-43.32Z"/><path class="cls-3" d="m238.87,344.89c0-9.6,5.88-15.12,12.72-15.12s12.72,5.52,12.72,15.12-5.88,15-12.72,15-12.72-5.52-12.72-15Zm23.52,0c0-7.92-4.68-13.44-10.8-13.44s-10.8,5.52-10.8,13.44,4.68,13.32,10.8,13.32,10.8-5.4,10.8-13.32Z"/><path class="cls-3" d="m273.31,356.05v-40.2h1.8v40.56c0,1.2.48,1.8,1.2,1.8.24,0,.48,0,1.08-.12l.36,1.56c-.48.12-.84.24-1.56.24-1.8,0-2.88-1.08-2.88-3.84Z"/><path class="cls-3" d="m284.59,344.89c0-9.24,5.88-15.12,12.84-15.12,3.48,0,5.88,1.32,8.88,3.6l-.12-5.4v-12.12h1.8v43.32h-1.56l-.24-3.84h-.12c-2.4,2.4-5.64,4.56-9.6,4.56-7.2,0-11.88-5.28-11.88-15Zm21.6,8.28v-17.76c-3.24-2.88-5.88-3.96-8.88-3.96-6.12,0-10.8,6-10.8,13.44,0,7.92,3.6,13.32,10.08,13.32,3.36,0,6.36-1.8,9.6-5.04Z"/></svg>