<?xml version="1.0" encoding="UTF-8"?><svg id="Layer_1" xmlns="http://www.w3.org/2000/svg" width="440" height="475" viewBox="0 0 440 475"><defs><style>.cls-1{fill:#f1f2f0;stroke:#f1f2f0;}.cls-1,.cls-2{stroke-miterlimit:10;}.cls-2{fill:#dae4e8;stroke:#7499aa;}.cls-3{stroke-width:0px;}</style></defs><rect class="cls-1" x=".5" y="105.5" width="439" height="369"/><circle class="cls-2" cx="219.5" cy="110.5" r="110"/><path class="cls-3" d="m162.45,322.57h2.04l5.28,24c.96,4.32,1.92,8.64,2.88,12.96h.24c.96-4.32,2.04-8.64,3.12-12.96l6.48-24h2.16l6.48,24c1.08,4.32,2.16,8.64,3.24,12.96h.24c.96-4.32,1.8-8.64,2.76-12.96l5.28-24h1.92l-9.12,39.6h-1.92l-7.68-28.44c-.72-3.12-1.44-5.76-2.16-8.88h-.24c-.72,3.12-1.56,5.76-2.28,8.88l-7.56,28.44h-1.92l-9.24-39.6Z"/><path class="cls-3" d="m212.49,322.57h21.24v1.68h-19.32v15.96h16.2v1.68h-16.2v18.6h19.92v1.68h-21.84v-39.6Z"/><path class="cls-3" d="m243.09,322.57h10.32c7.92,0,12.84,3.12,12.84,9.6,0,4.2-2.16,7.44-6.24,8.64v.24c5.28.84,8.76,4.08,8.76,9.6,0,7.56-5.64,11.52-14.64,11.52h-11.04v-39.6Zm9.12,17.64c8.64,0,12.12-3,12.12-7.92,0-5.88-4.08-8.04-11.76-8.04h-7.56v15.96h7.2Zm1.2,20.28c8.28,0,13.44-3,13.44-9.72,0-6-4.92-8.88-13.44-8.88h-8.4v18.6h8.4Z"/></svg>